<?xml version="1.0" encoding="UTF-8" standalone="no"?>
<!DOCTYPE svg PUBLIC "-//W3C//DTD SVG 1.1//EN" "http://www.w3.org/Graphics/SVG/1.1/DTD/svg11.dtd">
<svg width="100%" height="100%" viewBox="0 0 44 11" version="1.1" xmlns="http://www.w3.org/2000/svg" xmlns:xlink="http://www.w3.org/1999/xlink" xml:space="preserve" xmlns:serif="http://www.serif.com/" style="fill-rule:evenodd;clip-rule:evenodd;stroke-linejoin:round;stroke-miterlimit:2;">
    <g transform="matrix(1,0,0,1,-468.266,-0.000127781)">
        <g transform="matrix(-0.17137,-0.0691935,-0.0691935,0.17137,545.613,-18.1297)">
            <path d="M224.055,260.352L256.066,260.352L279.103,282.578L273.806,216.418L224.055,260.352Z" style="fill:rgb(103,164,55);fill-rule:nonzero;"/>
        </g>
        <g transform="matrix(-0.17137,-0.0691935,-0.0691935,0.17137,588.983,-9.70457)">
            <path d="M345.817,260.352L377.828,260.352L400.865,282.578L395.567,216.418L345.817,260.352Z" style="fill:rgb(103,164,55);fill-rule:nonzero;"/>
        </g>
        <g transform="matrix(0.184812,0,0,0.184812,435.168,-39.5979)">
            <path d="M218.611,214.261L218.611,249.845L179.09,214.261L179.09,273.632L188.97,273.632L188.97,238.152L228.491,273.691L228.491,214.261L218.611,214.261Z" style="fill:rgb(103,164,55);fill-rule:nonzero;"/>
        </g>
        <g transform="matrix(0.184812,0,0,0.184812,435.168,-39.5764)">
            <path d="M360.837,214.203L342.191,251.421L329.042,225.271L323.471,236.415L342.191,273.632L371.906,214.203L360.837,214.203Z" style="fill:rgb(103,164,55);fill-rule:nonzero;"/>
        </g>
        <g transform="matrix(0.184812,0,0,0.184812,435.168,-39.5784)">
            <path d="M304.873,251.379L286.179,214.214L275.11,214.214L299.285,262.489L304.856,273.632L315.286,252.805L309.752,241.679L304.873,251.379Z" style="fill:rgb(103,164,55);fill-rule:nonzero;"/>
        </g>
    </g>
</svg>
